<?xml version="1.0" encoding="UTF-8"?>
<svg id="Layer_2" data-name="Layer 2" xmlns="http://www.w3.org/2000/svg" viewBox="0 0 31.6 31.6">
  <defs>
    <style>
      .cls-1 {
        fill: #0080ff;
        stroke-width: 0px;
      }
    </style>
  </defs>
  <g id="Layer_3" data-name="Layer 3">
    <g>
      <path class="cls-1" d="M15.8,0C7.09,0,0,7.09,0,15.8s7.09,15.8,15.8,15.8,15.8-7.09,15.8-15.8S24.51,0,15.8,0ZM15.8,30c-7.83,0-14.2-6.37-14.2-14.2S7.97,1.6,15.8,1.6s14.2,6.37,14.2,14.2-6.37,14.2-14.2,14.2Z"/>
      <polygon class="cls-1" points="22.24 8.23 15.8 14.67 9.36 8.23 8.23 9.36 14.67 15.8 8.23 22.24 9.36 23.37 15.8 16.93 22.24 23.37 23.37 22.24 16.93 15.8 23.37 9.36 22.24 8.23"/>
    </g>
  </g>
</svg>