<?xml version="1.0" encoding="UTF-8"?>
<svg id="Layer_2" data-name="Layer 2" xmlns="http://www.w3.org/2000/svg" version="1.1" viewBox="0 0 30 30">
  <defs>
    <style>
      .cls-1 {
        fill: #00b9ff;
        stroke-width: 0px;
      }
    </style>
  </defs>
  <path class="cls-1" d="M15,6.5c-4.6,0-8.3,3.7-8.3,8.2s.5,3.4,1.6,4.8c0,0,0,.2,0,.3l-.9,2.6,2.8-.9s0,0,0,0c0,0,.1,0,.2,0,1.4.9,2.9,1.4,4.6,1.4,4.6,0,8.3-3.7,8.3-8.2,0-4.5-3.7-8.2-8.3-8.2ZM20.2,18.3c-.3.7-1.4,1.3-1.9,1.4h0c-.1,0-.3,0-.4,0h0c-.4,0-1.1,0-2.6-.7-1.6-.6-3.1-2-4.3-3.8,0,0,0,0,0,0-.3-.4-1.1-1.5-1.1-2.7s.6-2.1,1-2.3c.4-.2,1.1-.3,1.3-.3.1,0,0,0,.1,0,.3,0,.5.2.7.6,0,.2.7,1.7.8,1.8,0,0,.2.4,0,.7h0c0,.2-.1.3-.3.5,0,0,0,0-.1.1,0,.1-.2.2-.3.3,0,0,0,0,0,.1,0,0,0,0,0,0,.2.3,1.4,2,3.1,2.8,0,0,.3.1.3.1s0,0,0,0c.1-.2.6-.7.8-.9.1-.2.3-.3.5-.3s.2,0,.4,0c.3,0,1.8.9,1.9.9.2,0,.4.2.5.3.1.2,0,.8-.1,1.4Z"/>
  <path class="cls-1" d="M26.7,0H3.3C1.5,0,0,1.5,0,3.3v23.4c0,1.8,1.5,3.3,3.3,3.3h23.4c1.8,0,3.3-1.5,3.3-3.3V3.3c0-1.8-1.5-3.3-3.3-3.3ZM15,25.1c-1.7,0-3.4-.4-5-1.2l-5.5,1.8s0,0,0,0c0,0-.1,0-.2,0,0,0,0-.2,0-.3l1.8-5.3c-.9-1.6-1.4-3.4-1.4-5.3,0-5.7,4.7-10.4,10.5-10.4s10.5,4.7,10.5,10.4-4.7,10.4-10.5,10.4Z"/>
</svg>