<?xml version="1.0" encoding="UTF-8"?>
<svg id="Layer_2" xmlns="http://www.w3.org/2000/svg" viewBox="0 0 583.13 94.58">
  <defs>
    <style>
      .cls-1 {
        fill: #2f2f30;
      }

      .cls-2 {
        fill: #0080ff;
      }
    </style>
  </defs>
  <g id="Layer_3">
    <g>
      <g>
        <path class="cls-2" d="M79.89,48.09c0-17.09,12.22-30.6,29.52-30.6,20.21,0,29.51,14.82,29.51,32,0,1.3,0,2.82-.11,4.22h-39.14c1.63,6.38,6.28,9.62,12.65,9.62,4.87,0,8.76-1.83,12.98-5.94l11.36,9.4c-5.63,7.14-13.73,11.89-25.42,11.89-18.37,0-31.35-12.21-31.35-30.59ZM119.68,43.22c-.76-6.49-4.53-10.59-10.16-10.59s-9.09,4.22-10.16,10.59h20.32Z"/>
        <path class="cls-2" d="M142.76,48.09c0-17.09,12.22-30.6,29.52-30.6,20.21,0,29.51,14.82,29.51,32,0,1.3,0,2.82-.11,4.22h-39.14c1.63,6.38,6.28,9.62,12.65,9.62,4.87,0,8.76-1.83,12.98-5.94l11.36,9.4c-5.63,7.14-13.73,11.89-25.42,11.89-18.37,0-31.35-12.21-31.35-30.59ZM182.55,43.22c-.76-6.49-4.53-10.59-10.16-10.59s-9.09,4.22-10.16,10.59h20.32Z"/>
        <path class="cls-2" d="M206.53,18.79h20.55v7.78c4-4.87,8.97-9.09,17.73-9.09,13.95,0,25.94,11.57,25.94,30.5s-12,30.59-25.84,30.59c-8.87,0-14.06-4-17.84-8.43v24.44h-20.55V18.79ZM250.54,47.87c0-7.68-5.3-13.19-12.01-13.19s-11.89,5.51-11.89,13.41,5.3,13.29,11.89,13.29,12.01-5.41,12.01-13.51Z"/>
      </g>
      <path class="cls-2" d="M36.98,0h-18.75c-1.61,0-2.41,1.95-1.28,3.08l27.26,27.26,6.23-6.23c1.18-1.18,3.19-.34,3.19,1.32v28.16c0,1.03-.84,1.87-1.87,1.87h-28.17c-1.67,0-2.5-2.01-1.32-3.19l6.23-6.23L3.08,20.64c-1.14-1.14-3.08-.33-3.08,1.28v55.36h38.64c22.59,0,40.66-19.39,38.46-42.44C75.18,14.75,57.16,0,36.98,0Z"/>
      <g>
        <path class="cls-1" d="M316.35,77.75v-7.16c-4.04,4.74-10.22,8.36-19.21,8.36-11.24,0-21.13-6.27-21.13-18.15,0-12.87,10.22-19.03,24.04-19.03,7.19,0,11.81.99,16.41,2.41v-1.09c0-8.04-5.17-12.44-14.61-12.44-6.63,0-11.58,1.44-16.97,3.64l-3.71-10.68c6.51-2.86,12.92-4.84,22.59-4.84,17.53,0,26.07,9.02,26.07,24.54v34.45h-13.49ZM316.7,53.43c-3.49-1.32-8.32-2.31-13.6-2.31-8.54,0-13.59,3.42-13.59,9.24,0,5.5,5.05,8.58,11.46,8.58,8.99,0,15.73-4.96,15.73-12.21v-3.31Z"/>
        <path class="cls-1" d="M337.68,19.65h13.6v13.09c3.71-8.69,10.56-14.63,21.01-14.19v14.09h-.78c-11.92,0-20.23,7.59-20.23,23v22.12h-13.6V19.65Z"/>
        <path class="cls-1" d="M387.06,61.68v-30.59h-7.53v-11.44h7.53V3.68h13.6v15.96h15.96v11.44h-15.96v28.5c0,5.18,2.69,7.27,7.31,7.27,3.03,0,5.73-.67,8.43-1.99v10.9c-3.37,1.87-7.19,2.98-12.25,2.98-10,0-17.09-4.3-17.09-17.06Z"/>
        <path class="cls-1" d="M424.62,56.62V19.65h13.59v33.01c0,9.02,4.61,14.2,12.7,14.2s13.37-5.4,13.37-14.42V19.65h13.59v58.11h-13.59v-9.02c-3.82,5.5-9.33,10.23-18.54,10.23-13.38,0-21.13-8.8-21.13-22.34Z"/>
        <path class="cls-1" d="M487.27,19.65h13.6v13.09c3.71-8.69,10.56-14.63,21.01-14.19v14.09h-.78c-11.92,0-20.23,7.59-20.23,23v22.12h-13.6V19.65Z"/>
        <path class="cls-1" d="M525.7,48.7c0-16.61,12.03-30.26,29-30.26,18.88,0,28.43,14.53,28.43,31.25,0,.88-.11,3.08-.22,3.73h-43.61c1.46,9.47,8.31,14.76,17.08,14.76,6.63,0,11.35-2.43,16.07-6.94l7.99,6.94c-5.62,6.6-13.37,10.89-24.28,10.89-17.19,0-30.45-12.21-30.45-30.37ZM569.64,44.62c-.9-8.57-6.07-15.29-15.05-15.29-8.32,0-14.17,6.28-15.4,15.29h30.45Z"/>
      </g>
    </g>
  </g>
</svg>