<?xml version="1.0" encoding="UTF-8"?>
<svg id="Layer_2" data-name="Layer 2" xmlns="http://www.w3.org/2000/svg" viewBox="0 0 200 200">
  <defs>
    <style>
      .cls-1 {
        fill: #0080ff;
      }

      .cls-1, .cls-2 {
        stroke-width: 0px;
      }

      .cls-2 {
        fill: #fff;
      }
    </style>
  </defs>
  <g id="Layer_2-2" data-name="Layer 2">
    <circle class="cls-1" cx="100" cy="100" r="100"/>
    <g>
      <path class="cls-2" d="M72.16,149.03c.13-.05.27-.03.39.03,8.35,4.47,17.82,6.82,27.37,6.82,31.88,0,57.81-25.74,57.81-57.37s-25.94-57.38-57.82-57.38-57.82,25.74-57.82,57.38c0,10.22,2.74,20.25,7.92,29.01.07.12.09.27.04.42l-10.02,29.55c-.12.36-.03.78.25,1.06.26.27.62.4,1.06.26l30.8-9.79ZM99.91,52.19c25.75,0,46.69,20.78,46.69,46.32s-20.94,46.32-46.69,46.32c-9.18,0-18.06-2.65-25.69-7.66-.25-.16-.55-.23-.9-.12l-15.43,4.9c-.18.07-.37.01-.51-.12-.13-.14-.18-.33-.11-.51l4.98-14.7c.11-.32.06-.67-.15-.95-5.81-7.94-8.89-17.33-8.89-27.15,0-25.54,20.95-46.32,46.69-46.32Z"/>
      <path class="cls-2" d="M88.49,77.06l-.94-2.25c-.86-2.06-1.91-2.97-3.42-2.97l-.64.03c-.78.04-5.1.61-6.96,1.78-1.99,1.25-5.35,5.27-5.35,12.39,0,6.44,4.11,12.57,5.88,14.91.05.06.14.19.26.38,6.84,9.98,15.34,17.37,23.96,20.82,8.29,3.31,12.21,3.69,14.43,3.69.94,0,1.71-.07,2.33-.13l.42-.04c2.71-.25,8.92-3.48,10.29-7.25,1.2-3.35,1.31-6.48.72-7.46-.44-.73-1.27-1.13-2.33-1.63l-.18-.08c-5.59-2.74-9.31-4.5-10.2-4.82-.61-.22-1.22-.42-1.85-.42-1,0-1.82.49-2.5,1.51-.89,1.32-3.52,4.4-4.34,5.31-.25.3-.47.44-.71.44-.23,0-1.49-.54-2.02-.77-9.22-4-16.28-13.44-17.53-15.57-.17-.28-.21-.46-.21-.57,0-.05,0-.1.01-.16.06-.22.24-.43.64-.83.44-.43.92-1.02,1.39-1.58.29-.35.52-.63.75-.9.68-.78.97-1.37,1.33-2.11l.2-.4c.8-1.58.11-2.91-.11-3.35-.15-.29-1.66-3.93-3.33-7.95Z"/>
    </g>
  </g>
</svg>